<svg width="172" height="24" viewBox="0 0 172 24" fill="none" xmlns="http://www.w3.org/2000/svg">
<rect width="172" height="24" rx="4" fill="url(#paint0_linear_12_155840)"/>
<path d="M12.396 17.112C11.612 17.112 10.926 16.9767 10.338 16.706C9.75 16.4353 9.29267 16.0527 8.966 15.558C8.64867 15.054 8.49 14.4753 8.49 13.822H10.548C10.5853 14.2793 10.7767 14.6387 11.122 14.9C11.4767 15.1613 11.9387 15.292 12.508 15.292C13.04 15.292 13.446 15.1847 13.726 14.97C14.006 14.746 14.146 14.4567 14.146 14.102C14.146 13.8033 14.0247 13.5653 13.782 13.388C13.5487 13.2013 13.1473 13.0567 12.578 12.954L11.178 12.688C10.3287 12.5387 9.68 12.2447 9.232 11.806C8.784 11.3673 8.56 10.8027 8.56 10.112C8.56 9.524 8.714 9.00133 9.022 8.544C9.33933 8.08667 9.778 7.732 10.338 7.48C10.9073 7.21867 11.5607 7.088 12.298 7.088C13.0353 7.088 13.684 7.21867 14.244 7.48C14.8133 7.732 15.2613 8.096 15.588 8.572C15.9147 9.03867 16.0873 9.58 16.106 10.196H14.034C13.9873 9.78533 13.81 9.468 13.502 9.244C13.194 9.01067 12.774 8.894 12.242 8.894C11.738 8.894 11.346 8.99667 11.066 9.202C10.786 9.398 10.646 9.664 10.646 10C10.646 10.2613 10.758 10.476 10.982 10.644C11.206 10.8027 11.5887 10.9287 12.13 11.022L13.544 11.288C14.4307 11.4467 15.098 11.7547 15.546 12.212C16.0033 12.6693 16.232 13.2573 16.232 13.976C16.232 14.5827 16.078 15.124 15.77 15.6C15.462 16.076 15.0187 16.4493 14.44 16.72C13.8613 16.9813 13.18 17.112 12.396 17.112ZM21.5867 17.112C20.8307 17.112 20.154 16.9533 19.5567 16.636C18.9594 16.3187 18.4927 15.8753 18.1567 15.306C17.83 14.7273 17.6667 14.06 17.6667 13.304C17.6667 12.548 17.8347 11.876 18.1707 11.288C18.516 10.6907 18.9874 10.2287 19.5847 9.902C20.182 9.566 20.8494 9.398 21.5867 9.398C22.2867 9.398 22.9167 9.552 23.4767 9.86C24.0367 10.1587 24.48 10.588 24.8067 11.148C25.1334 11.6987 25.2967 12.3427 25.2967 13.08C25.2967 13.304 25.2827 13.514 25.2547 13.71H19.6127C19.6967 14.2793 19.916 14.718 20.2707 15.026C20.6254 15.3247 21.0734 15.474 21.6147 15.474C22.0067 15.474 22.3474 15.3947 22.6367 15.236C22.9354 15.0773 23.15 14.8627 23.2807 14.592H25.1987C24.9934 15.3667 24.564 15.9827 23.9107 16.44C23.2667 16.888 22.492 17.112 21.5867 17.112ZM23.3087 12.366C23.2154 11.918 23.0147 11.582 22.7067 11.358C22.408 11.134 22.0347 11.022 21.5867 11.022C21.1294 11.022 20.7327 11.1387 20.3967 11.372C20.07 11.596 19.8414 11.9273 19.7107 12.366H23.3087ZM30.489 19.996C29.789 19.996 29.1683 19.884 28.627 19.66C28.095 19.4453 27.6656 19.1373 27.339 18.736C27.0216 18.3347 26.8396 17.8727 26.793 17.35H28.865C28.9583 17.658 29.1543 17.9007 29.453 18.078C29.761 18.2647 30.1296 18.358 30.559 18.358C31.119 18.358 31.5623 18.1993 31.889 17.882C32.2156 17.574 32.379 17.1493 32.379 16.608V15.642C32.1456 15.9967 31.8236 16.2767 31.413 16.482C31.0116 16.678 30.5636 16.776 30.069 16.776C29.4436 16.776 28.8696 16.6173 28.347 16.3C27.8336 15.9827 27.423 15.544 27.115 14.984C26.8163 14.424 26.667 13.7893 26.667 13.08C26.667 12.38 26.8163 11.75 27.115 11.19C27.423 10.63 27.8336 10.1913 28.347 9.874C28.8696 9.55667 29.4436 9.398 30.069 9.398C30.573 9.398 31.0256 9.50067 31.427 9.706C31.8376 9.91133 32.1596 10.196 32.393 10.56V9.51H34.339V16.608C34.339 17.28 34.185 17.8727 33.877 18.386C33.569 18.8993 33.121 19.296 32.533 19.576C31.9543 19.856 31.273 19.996 30.489 19.996ZM28.683 13.08C28.683 13.6493 28.8556 14.116 29.201 14.48C29.5556 14.844 30.0036 15.026 30.545 15.026C31.0863 15.026 31.5296 14.844 31.875 14.48C32.2203 14.116 32.393 13.6493 32.393 13.08C32.393 12.5107 32.2203 12.0487 31.875 11.694C31.5296 11.33 31.0863 11.148 30.545 11.148C30.0036 11.148 29.5556 11.33 29.201 11.694C28.8556 12.0487 28.683 12.5107 28.683 13.08ZM39.0437 17.112C38.2597 17.112 37.6251 16.8553 37.1397 16.342C36.6637 15.8287 36.4257 15.1193 36.4257 14.214V9.51H38.4137V13.654C38.4137 14.1953 38.5351 14.606 38.7777 14.886C39.0297 15.1567 39.3704 15.292 39.7997 15.292C40.2757 15.292 40.6631 15.1333 40.9617 14.816C41.2697 14.4893 41.4237 14.032 41.4237 13.444V9.51H43.4117V17H41.4657V15.894C41.2044 16.2767 40.8591 16.5753 40.4297 16.79C40.0097 17.0047 39.5477 17.112 39.0437 17.112ZM45.5777 9.51H47.5237V10.812C47.7197 10.4013 48.0137 10.084 48.4057 9.86C48.807 9.62667 49.2504 9.51 49.7357 9.51H50.3517V11.33H49.6797C48.2704 11.33 47.5657 12.058 47.5657 13.514V17H45.5777V9.51ZM55.2319 17.112C54.5039 17.112 53.8459 16.9487 53.2579 16.622C52.6793 16.286 52.2219 15.8287 51.8859 15.25C51.5499 14.662 51.3819 13.9947 51.3819 13.248C51.3819 12.5013 51.5499 11.8387 51.8859 11.26C52.2219 10.672 52.6793 10.2147 53.2579 9.888C53.8459 9.56133 54.5039 9.398 55.2319 9.398C55.9599 9.398 56.6179 9.56133 57.2059 9.888C57.7939 10.2147 58.2559 10.672 58.5919 11.26C58.9279 11.8387 59.0959 12.5013 59.0959 13.248C59.0959 13.9947 58.9279 14.662 58.5919 15.25C58.2559 15.8287 57.7939 16.286 57.2059 16.622C56.6179 16.9487 55.9599 17.112 55.2319 17.112ZM53.3979 13.248C53.3979 13.8827 53.5659 14.396 53.9019 14.788C54.2473 15.1707 54.6906 15.362 55.2319 15.362C55.7733 15.362 56.2166 15.1707 56.5619 14.788C56.9073 14.396 57.0799 13.8827 57.0799 13.248C57.0799 12.6133 56.9073 12.1047 56.5619 11.722C56.2166 11.3393 55.7733 11.148 55.2319 11.148C54.6906 11.148 54.2473 11.3393 53.9019 11.722C53.5659 12.1047 53.3979 12.6133 53.3979 13.248ZM67.8327 17.112C67.0487 17.112 66.3627 16.9767 65.7747 16.706C65.1867 16.4353 64.7294 16.0527 64.4027 15.558C64.0854 15.054 63.9267 14.4753 63.9267 13.822H65.9847C66.0221 14.2793 66.2134 14.6387 66.5587 14.9C66.9134 15.1613 67.3754 15.292 67.9447 15.292C68.4767 15.292 68.8827 15.1847 69.1627 14.97C69.4427 14.746 69.5827 14.4567 69.5827 14.102C69.5827 13.8033 69.4614 13.5653 69.2187 13.388C68.9854 13.2013 68.5841 13.0567 68.0147 12.954L66.6147 12.688C65.7654 12.5387 65.1167 12.2447 64.6687 11.806C64.2207 11.3673 63.9967 10.8027 63.9967 10.112C63.9967 9.524 64.1507 9.00133 64.4587 8.544C64.7761 8.08667 65.2147 7.732 65.7747 7.48C66.3441 7.21867 66.9974 7.088 67.7347 7.088C68.4721 7.088 69.1207 7.21867 69.6807 7.48C70.2501 7.732 70.6981 8.096 71.0247 8.572C71.3514 9.03867 71.5241 9.58 71.5427 10.196H69.4707C69.4241 9.78533 69.2467 9.468 68.9387 9.244C68.6307 9.01067 68.2107 8.894 67.6787 8.894C67.1747 8.894 66.7827 8.99667 66.5027 9.202C66.2227 9.398 66.0827 9.664 66.0827 10C66.0827 10.2613 66.1947 10.476 66.4187 10.644C66.6427 10.8027 67.0254 10.9287 67.5667 11.022L68.9807 11.288C69.8674 11.4467 70.5347 11.7547 70.9827 12.212C71.4401 12.6693 71.6687 13.2573 71.6687 13.976C71.6687 14.5827 71.5147 15.124 71.2067 15.6C70.8987 16.076 70.4554 16.4493 69.8767 16.72C69.2981 16.9813 68.6167 17.112 67.8327 17.112ZM75.6794 17.084C75.1567 17.084 74.6901 16.9907 74.2794 16.804C73.8781 16.608 73.5654 16.3373 73.3414 15.992C73.1174 15.6467 73.0054 15.2547 73.0054 14.816C73.0054 14.1253 73.2761 13.57 73.8174 13.15C74.3681 12.73 75.1101 12.52 76.0434 12.52H78.0874V12.324C78.0874 11.8853 77.9661 11.554 77.7234 11.33C77.4901 11.0967 77.1541 10.98 76.7154 10.98C76.3234 10.98 76.0061 11.064 75.7634 11.232C75.5301 11.4 75.3901 11.6333 75.3434 11.932H73.2854C73.3601 11.148 73.7054 10.532 74.3214 10.084C74.9374 9.62667 75.7494 9.398 76.7574 9.398C77.8027 9.398 78.6054 9.65467 79.1654 10.168C79.7254 10.6813 80.0054 11.4233 80.0054 12.394V14.788C80.0054 14.984 80.0474 15.1287 80.1314 15.222C80.2247 15.3153 80.3694 15.362 80.5654 15.362H80.8314V17H79.8794C79.4221 17 79.0487 16.9067 78.7594 16.72C78.4701 16.524 78.2787 16.244 78.1854 15.88C77.9427 16.2627 77.6021 16.5613 77.1634 16.776C76.7247 16.9813 76.2301 17.084 75.6794 17.084ZM75.0074 14.69C75.0074 14.9607 75.1101 15.1753 75.3154 15.334C75.5301 15.4833 75.8241 15.558 76.1974 15.558C76.7481 15.558 77.2007 15.3993 77.5554 15.082C77.9101 14.7647 78.0874 14.3587 78.0874 13.864V13.85H76.3654C75.9174 13.85 75.5767 13.9247 75.3434 14.074C75.1194 14.214 75.0074 14.4193 75.0074 14.69ZM82.2496 6.78H84.2376V17H82.2496V6.78ZM88.9297 17.112C88.1457 17.112 87.511 16.8553 87.0257 16.342C86.5497 15.8287 86.3117 15.1193 86.3117 14.214V9.51H88.2997V13.654C88.2997 14.1953 88.421 14.606 88.6637 14.886C88.9157 15.1567 89.2563 15.292 89.6857 15.292C90.1617 15.292 90.549 15.1333 90.8477 14.816C91.1557 14.4893 91.3097 14.032 91.3097 13.444V9.51H93.2977V17H91.3517V15.894C91.0903 16.2767 90.745 16.5753 90.3157 16.79C89.8957 17.0047 89.4337 17.112 88.9297 17.112ZM98.4876 17.112C97.8623 17.112 97.2883 16.9533 96.7656 16.636C96.2523 16.3093 95.8416 15.852 95.5336 15.264C95.235 14.676 95.0856 14.004 95.0856 13.248C95.0856 12.492 95.235 11.8247 95.5336 11.246C95.8416 10.658 96.2523 10.2053 96.7656 9.888C97.2883 9.56133 97.8623 9.398 98.4876 9.398C98.973 9.398 99.4163 9.496 99.8176 9.692C100.219 9.888 100.541 10.1587 100.784 10.504V6.78H102.772V17H100.826V15.95C100.592 16.314 100.27 16.5987 99.8596 16.804C99.449 17.0093 98.9916 17.112 98.4876 17.112ZM97.1016 13.248C97.1016 13.8827 97.2743 14.396 97.6196 14.788C97.9743 15.1707 98.4223 15.362 98.9636 15.362C99.505 15.362 99.9483 15.1707 100.294 14.788C100.648 14.396 100.826 13.8827 100.826 13.248C100.826 12.6133 100.653 12.1047 100.308 11.722C99.9623 11.3393 99.5143 11.148 98.9636 11.148C98.413 11.148 97.965 11.3393 97.6196 11.722C97.2743 12.1047 97.1016 12.6133 97.1016 13.248ZM108.544 7.2H115.194V9.118H110.658V11.26H114.662V13.15H110.658V17H108.544V7.2ZM117.007 6.78H118.995V17H117.007V6.78ZM124.653 17.112C123.897 17.112 123.221 16.9533 122.623 16.636C122.026 16.3187 121.559 15.8753 121.223 15.306C120.897 14.7273 120.733 14.06 120.733 13.304C120.733 12.548 120.901 11.876 121.237 11.288C121.583 10.6907 122.054 10.2287 122.651 9.902C123.249 9.566 123.916 9.398 124.653 9.398C125.353 9.398 125.983 9.552 126.543 9.86C127.103 10.1587 127.547 10.588 127.873 11.148C128.2 11.6987 128.363 12.3427 128.363 13.08C128.363 13.304 128.349 13.514 128.321 13.71H122.679C122.763 14.2793 122.983 14.718 123.337 15.026C123.692 15.3247 124.14 15.474 124.681 15.474C125.073 15.474 125.414 15.3947 125.703 15.236C126.002 15.0773 126.217 14.8627 126.347 14.592H128.265C128.06 15.3667 127.631 15.9827 126.977 16.44C126.333 16.888 125.559 17.112 124.653 17.112ZM126.375 12.366C126.282 11.918 126.081 11.582 125.773 11.358C125.475 11.134 125.101 11.022 124.653 11.022C124.196 11.022 123.799 11.1387 123.463 11.372C123.137 11.596 122.908 11.9273 122.777 12.366H126.375ZM132.81 14.564L131.2 17H128.988L131.55 13.136L129.086 9.51H131.242L132.824 11.792L134.392 9.51H136.534L134.07 13.136L136.646 17H134.406L132.81 14.564ZM138.073 9.51H140.061V17H138.073V9.51ZM137.793 7.368C137.793 7.01333 137.914 6.71933 138.157 6.486C138.409 6.24333 138.712 6.122 139.067 6.122C139.421 6.122 139.72 6.24333 139.963 6.486C140.215 6.71933 140.341 7.01333 140.341 7.368C140.341 7.71333 140.215 8.00733 139.963 8.25C139.72 8.48333 139.421 8.6 139.067 8.6C138.712 8.6 138.409 8.48333 138.157 8.25C137.914 8.00733 137.793 7.71333 137.793 7.368ZM146.503 17.112C145.999 17.112 145.541 17.0093 145.131 16.804C144.72 16.5987 144.398 16.314 144.165 15.95V17H142.219V6.78H144.207V10.504C144.449 10.1587 144.771 9.888 145.173 9.692C145.574 9.496 146.017 9.398 146.503 9.398C147.128 9.398 147.697 9.56133 148.211 9.888C148.733 10.2053 149.144 10.658 149.443 11.246C149.751 11.8247 149.905 12.492 149.905 13.248C149.905 14.004 149.751 14.676 149.443 15.264C149.144 15.852 148.733 16.3093 148.211 16.636C147.697 16.9533 147.128 17.112 146.503 17.112ZM144.165 13.248C144.165 13.8827 144.337 14.396 144.683 14.788C145.037 15.1707 145.485 15.362 146.027 15.362C146.568 15.362 147.011 15.1707 147.357 14.788C147.711 14.396 147.889 13.8827 147.889 13.248C147.889 12.6133 147.716 12.1047 147.371 11.722C147.025 11.3393 146.577 11.148 146.027 11.148C145.476 11.148 145.028 11.3393 144.683 11.722C144.337 12.1047 144.165 12.6133 144.165 13.248ZM151.697 6.78H153.685V17H151.697V6.78ZM159.343 17.112C158.587 17.112 157.91 16.9533 157.313 16.636C156.716 16.3187 156.249 15.8753 155.913 15.306C155.586 14.7273 155.423 14.06 155.423 13.304C155.423 12.548 155.591 11.876 155.927 11.288C156.272 10.6907 156.744 10.2287 157.341 9.902C157.938 9.566 158.606 9.398 159.343 9.398C160.043 9.398 160.673 9.552 161.233 9.86C161.793 10.1587 162.236 10.588 162.563 11.148C162.89 11.6987 163.053 12.3427 163.053 13.08C163.053 13.304 163.039 13.514 163.011 13.71H157.369C157.453 14.2793 157.672 14.718 158.027 15.026C158.382 15.3247 158.83 15.474 159.371 15.474C159.763 15.474 160.104 15.3947 160.393 15.236C160.692 15.0773 160.906 14.8627 161.037 14.592H162.955C162.75 15.3667 162.32 15.9827 161.667 16.44C161.023 16.888 160.248 17.112 159.343 17.112ZM161.065 12.366C160.972 11.918 160.771 11.582 160.463 11.358C160.164 11.134 159.791 11.022 159.343 11.022C158.886 11.022 158.489 11.1387 158.153 11.372C157.826 11.596 157.598 11.9273 157.467 12.366H161.065Z" fill="#03050F"/>
<defs>
<linearGradient id="paint0_linear_12_155840" x1="-5.126e-06" y1="24" x2="147.194" y2="-49.6058" gradientUnits="userSpaceOnUse">
<stop stop-color="#00F4E2"/>
<stop offset="1" stop-color="#00FF7F"/>
</linearGradient>
</defs>
</svg>
